# AST/ASF file generated using VICON BodyLanguage
# -----------------------------------------------
:version 1.10
:name VICON
:units
  mass 1.0
  length 0.45
  angle deg
:documentation
   .ast/.asf automatically generated from VICON data using
   VICON BodyBuilder and BodyLanguage model FoxedUp or BRILLIANT.MOD
:root
   order TX TY TZ RX RY RZ
   axis XYZ
   position 0 0 0  
   orientation 0 0 0 
:bonedata
  begin
     id 1 
     name lhipjoint
     direction 0.645893 -0.654526 0.392961 
     length 2.38111 
     axis 0 0 0  XYZ
  end
  begin
     id 2 
     name lfemur
     direction 0.34202 -0.939693 0  
     length 6.6822  
     axis 0 0 20  XYZ
    dof rx ry rz
    limits (-160.0 20.0)
           (-70.0 70.0)
           (-60.0 70.0)
  end
  begin
     id 3 
     name ltibia
     direction 0.34202 -0.939693 0   
     length 6.93904   
     axis 0 0 20   XYZ
    dof rx
    limits (-10.0 170.0)
  end
  begin
     id 4 
     name lfoot
     direction 0.0694967 -0.190941 0.979138   
     length 2.13616   
     axis -90 7.62852e-016 20   XYZ
    dof rx rz
    limits (-45.0 90.0)
           (-70.0 20.0)
  end
  begin
     id 5 
     name ltoes
     direction 1.535e-011 -4.2202e-011 1   
     length 1.07536   
     axis -90 7.62852e-016 20   XYZ
    dof rx
    limits (-90.0 20.0)
  end
  begin
     id 6 
     name rhipjoint
     direction -0.700219 -0.612087 0.367481   
     length 2.54621  
     axis 0 0 0  XYZ 
  end
  begin
     id 7 
     name rfemur
     direction -0.34202 -0.939693 0   
     length 6.55353   
     axis 0 0 -20   XYZ
    dof rx ry rz
    limits (-160.0 20.0)
           (-70.0 70.0)
           (-70.0 60.0)
  end
  begin
     id 8 
     name rtibia
     direction -0.34202 -0.939693 0   
     length 6.8736   
     axis 0 0 -20   XYZ
    dof rx
    limits (-10.0 170.0)
 end
 begin
     id 9 
     name rfoot
     direction -0.0679995 -0.186827 0.980037   
     length 2.1218  
     axis -90 -7.62852e-016 -20   XYZ
    dof rx rz
    limits (-45.0 90.0)
           (-20.0 70.0)
  end
  begin
     id 10 
     name rtoes
     direction -1.53589e-011 -4.21772e-011 1   
     length 1.06864   
     axis -90 -7.62852e-016 -20   XYZ
    dof rx
    limits (-90.0 20.0)
  end
  begin
     id 11 
     name lowerback
     direction -0.0416607 0.996347 -0.0745409   
     length 2.12205   
     axis 0 0 0   XYZ
    dof rx ry rz
    limits (-20.0 45.0)
           (-30.0 30.0)
           (-30.0 30.0)
  end
  begin
     id 12 
     name upperback
     direction -0.000153993 0.999276 -0.0380568   
     length 2.12759   
     axis 0 0 0   XYZ
    dof rx ry rz
    limits (-20.0 45.0)
           (-30.0 30.0)
           (-30.0 30.0)
  end
  begin
     id 13 
     name thorax
     direction 0.0187671 0.999821 -0.00241421   
     length 2.13704   
     axis 0 0 0   XYZ
    dof rx ry rz
    limits (-20.0 45.0)
           (-30.0 30.0)
           (-30.0 30.0)
  end
  begin
     id 14 
     name lowerneck
     direction 0.0268157 0.964865 0.261374   
     length 1.65253   
     axis 0 0 0   XYZ
    dof rx ry rz
    limits (-20.0 45.0)
           (-30.0 30.0)
           (-30.0 30.0)
  end
  begin
     id 15 
     name upperneck
     direction 0.00263774 0.939908 -0.341418   
     length 1.72375   
     axis 0 0 0   XYZ
    dof rx ry rz
    limits (-20.0 45.0)
           (-30.0 30.0)
           (-30.0 30.0)
  end
  begin
     id 16
     name head
     direction -0.00526001 0.989001 -0.147818  
     length 1.74878  
     axis 0 0 0   XYZ
    dof rx ry rz
    limits (-20.0 45.0)
           (-30.0 30.0)
           (-30.0 30.0)
  end
  begin
     id 17 
     name lclavicle
     direction 0.881214 0.461162 -0.103884  
     length 3.25108  
     axis 0 0 0   XYZ
    dof ry rz
    limits (-20.0 10.0)
           (0.0 20.0)
  end
  begin
     id 18 
     name lhumerus
     direction 1 -4.4899e-011 3.38092e-027   
     length 4.87408   
     axis 180 -30 -90   XYZ
    dof rx ry rz
    limits (-60.0 90.0)
           (-90.0 90.0)
           (-90.0 90.0)
  end
  begin
     id 19
     name lradius
     direction 1 -4.48931e-011 9.96288e-027   
     length 2.76729   
     axis 180 -30 -90   XYZ
    dof rx
    limits (-10.0 170.0)
  end
  begin
     id 20
     name lwrist
     direction 1 -4.4896e-011 1.50617e-026   
     length 1.38364   
     axis -9.31234e-015 90 90   XYZ
    dof ry
    limits (-180.0 0.0)
 end
  begin
     id 21 
     name lhand
     direction 1 -4.49038e-011 3.01286e-026   
     length 0.98922   
     axis -1.92217e-014 90 90   XYZ
    dof rx rz
    limits (-90.0 90.0)
           (-45.0 45.0)
  end
  begin
     id 22 
     name lfingers
     direction 1 -4.49051e-011 6.02588e-026   
     length 0.797535   
     axis -3.84436e-014 90 90   XYZ
    dof rx
    limits (0.0 90.0)
  end
  begin
     id 23
     name lthumb
     direction 0.707107 -6.34901e-011 0.707107   
     length 1.14511   
     axis -90 45 2.19363e-014   XYZ
    dof rx rz
    limits (-45.0 45.0)
           (-45.0 45.0)
  end
  begin
     id 24 
     name rclavicle
     direction -0.893894 0.441652 -0.0767889   
     length 3.29361  
     axis 0 0 0   XYZ 
    dof ry rz
    limits (-10.0 20.0)
           (-20.0 0.0)
  end
  begin
     id 25 
     name rhumerus
     direction -1 -4.48945e-011 8.0491e-028  
     length 4.71404   
     axis 180 30 90   XYZ
    dof rx ry rz
    limits (-90.0 60.0)
           (-90.0 90.0)
           (-90.0 90.0)
  end
  begin
     id 26 
     name rradius
     direction -1 -4.48986e-011 9.27795e-027   
     length 2.83468   
     axis 180 30 90   XYZ
    dof rx
    limits (-10.0 170.0)
  end
  begin
     id 27 
     name rwrist
     direction -1 -4.49029e-011 1.5064e-026   
     length 1.41734   
     axis -9.31234e-015 -90 -90   XYZ
    dof ry
    limits (-180.0 0.0)
  end
  begin
     id 28
     name rhand
     direction -1 -4.48857e-011 3.01165e-026   
     length 0.868195   
     axis -1.92217e-014 -90 -90   XYZ
    dof rx rz
    limits (-90.0 90.0)
           (-45.0 45.0)
  end
  begin
     id 29
     name rfingers
     direction -1 -4.49048e-011 6.02585e-026   
     length 0.699961   
     axis -3.84436e-014 -90 -90   XYZ
    dof rx
    limits (0.0 90.0)
  end
  begin
     id 30
     name rthumb
     direction -0.707107 -6.34854e-011 0.707107   
     length 1.00501   
     axis -90 -45 -2.19363e-014   XYZ
    dof rx rz
    limits (-45.0 45.0)
           (-45.0 45.0)
  end
:hierarchy
  begin
    root lhipjoint rhipjoint lowerback
    lhipjoint lfemur
    lfemur ltibia
    ltibia lfoot
    lfoot ltoes
    rhipjoint rfemur
    rfemur rtibia
    rtibia rfoot
    rfoot rtoes
    lowerback upperback
    upperback thorax
    thorax lowerneck lclavicle rclavicle
    lowerneck upperneck
    upperneck head
    lclavicle lhumerus
    lhumerus lradius
    lradius lwrist
    lwrist lhand lthumb
    lhand lfingers
    rclavicle rhumerus
    rhumerus rradius
    rradius rwrist
    rwrist rhand rthumb
    rhand rfingers
  end

#!OML:ASF H:\ManfredObstacles\Project 1\Capture day 2\Session 1\male.ASF
:FULLY-SPECIFIED
:DEGREES
16
root 0.967752 15.686 27.8708 -172.452 4.23389 -183.585
lowerback -6.57193 4.35663 -7.83626
upperback 1.17101 6.63657 -1.7828
thorax 4.2399 3.15355 3.14152
lowerneck -30.3168 -0.508727 -0.372589
upperneck 43.9322 -6.82861 2.50988
head 25.6653 -3.27446 -1.10066
rclavicle -8.44835e-016 2.38542e-014
rhumerus -29.1176 -11.3608 -84.3971
rradius 39.3417
rwrist 23.8625
rhand -0.388321 -6.8454
rfingers 7.12502
rthumb 25.2184 -35.1991
lclavicle -8.44835e-016 2.38542e-014
lhumerus -61.0265 52.9584 33.1707
lradius 12.0006
lwrist -97.0206
lhand 2.12954 5.81284
lfingers 7.12502
lthumb 27.6285 33.8043
rfemur 2.73688 1.58267 18.6147
rtibia 42.2076
rfoot 15.4107 -7.71269
rtoes -25.5615
lfemur -29.1213 -4.69308 -24.6422
ltibia 28.8192
lfoot 4.54797 16.4486
ltoes 4.91306
17
root 0.946221 15.7079 27.7021 -172.464 4.19434 -183.677
lowerback -6.44779 4.28256 -7.71646
upperback 1.1782 6.52296 -1.85286
thorax 4.21045 3.10388 2.98511
lowerneck -30.5692 -0.49809 -0.399285
upperneck 43.949 -6.76388 2.47817
head 25.792 -3.24933 -1.10143
rclavicle -7.83709e-014 2.10712e-014
rhumerus -29.4957 -11.3831 -84.3725
rradius 38.9395
rwrist 23.9763
rhand -0.148942 -6.73041
rfingers 7.12502
rthumb 25.4477 -35.0516
lclavicle -7.83709e-014 2.10712e-014
lhumerus -55.9072 50.6121 39.7372
lradius 12.2247
lwrist -92.6177
lhand 2.28888 5.82584
lfingers 7.12502
lthumb 27.7808 33.7928
rfemur 0.947408 1.10439 18.266
rtibia 45.3955
rfoot 17.5986 -7.54658
rtoes -23.3332
lfemur -28.272 -4.41064 -25.0383
ltibia 28.5639
lfoot 3.91957 16.5377
ltoes 4.986
18
root 0.925915 15.7291 27.5348 -172.481 4.19094 -183.799
lowerback -6.31265 4.20595 -7.66499
upperback 1.18894 6.41061 -1.91388
thorax 4.1696 3.05349 2.87451
lowerneck -30.9503 -0.462522 -0.354505
upperneck 44.0049 -6.66384 2.36399
head 26.0057 -3.20409 -1.15955
rclavicle -7.84206e-014 -1.27222e-014
rhumerus -29.8367 -11.3405 -84.3398
rradius 38.5173
rwrist 24.1372
rhand 0.108098 -6.55525
rfingers 7.12502
rthumb 25.6939 -34.8411
lclavicle -7.84206e-014 -1.27222e-014
lhumerus -51.4289 47.9313 45.6926
lradius 12.522
lwrist -88.2036
lhand 2.39303 5.86551
lfingers 7.12502
lthumb 27.8804 33.8163
rfemur -0.86341 0.660406 17.9098
rtibia 48.5224
rfoot 19.4312 -7.77761
rtoes -21.1286
lfemur -27.3827 -4.12984 -25.4406
ltibia 28.2303
lfoot 3.31851 16.6375
ltoes 4.99796
19
root 0.907583 15.7487 27.3693 -172.511 4.20376 -183.958
lowerback -6.15606 4.12196 -7.69897
upperback 1.20297 6.29342 -1.96622
thorax 4.11055 2.99935 2.8174
lowerneck -31.4183 -0.406167 -0.258727
upperneck 44.0818 -6.5357 2.19812
head 26.2766 -3.14262 -1.25368
rclavicle 3.80176e-014 1.03368e-014
rhumerus -30.1427 -11.2615 -84.2975
rradius 38.0698
rwrist 24.3493
rhand 0.366557 -6.42096
rfingers 7.12502
rthumb 25.9414 -34.6708
lclavicle 3.80176e-014 1.03368e-014
lhumerus -47.5906 44.9892 51.0282
lradius 12.8962
lwrist -83.8333
lhand 2.4209 5.94459
lfingers 7.12502
lthumb 27.907 33.8911
rfemur -2.67803 0.226967 17.5457
rtibia 51.5676
rfoot 20.6994 -8.47738
rtoes -19.1213
lfemur -26.45 -3.8489 -25.858
ltibia 27.8203
lfoot 2.75783 16.7192
ltoes 4.94947
20
root 0.891399 15.7665 27.2055 -172.559 4.2216 -184.161
lowerback -5.97601 4.02884 -7.82454
upperback 1.22519 6.16974 -2.01331
thorax 4.03788 2.94048 2.81376
lowerneck -31.8672 -0.33424 -0.124464
upperneck 44.1463 -6.39448 2.0179
head 26.5254 -3.07172 -1.35916
rclavicle -7.40473e-015 -3.18055e-015
rhumerus -30.42 -11.1856 -84.2375
rradius 37.5946
rwrist 24.6284
rhand 0.59242 -6.31317
rfingers 7.12502
rthumb 26.1577 -34.5312
lclavicle -7.40473e-015 -3.18055e-015
lhumerus -44.4019 41.9757 55.6727
lradius 13.3392
lwrist -79.6786
lhand 2.38975 6.07391
lfingers 7.12502
lthumb 27.8773 34.0252
rfemur -4.48247 -0.210496 17.1666
rtibia 54.5024
rfoot 21.2882 -9.62091
rtoes -17.444
lfemur -25.4714 -3.56524 -26.2998
ltibia 27.334
lfoot 2.23176 16.7711
ltoes 4.83796
